#!OML:ASF E:/inclinewalkrobotboard/Project1/Captureday1/Session1/subject1.ASF
:FULLY-SPECIFIED
:DEGREES
101
root 0 0 0 1.845278975296801 -3.895237263578446 2.1763210340911443
lowerback 11.985904408884748 1.1656600460657118 -0.09602341318868024
upperback -4.45753520891624 1.4655204487562519 -0.8558504701114474
thorax -11.566664287157502 0.6786755035659628 -1.1360556892405254
lowerneck -6.239013007924133 1.7524820170393018 4.8333637930443105
upperneck 18.17716795864869 3.285780508413673 -8.488715697043022
head 6.697856761036465 1.2225674544341145 -3.2932577271447414
rclavicle -2.149928992739576E-15 -1.1022172746716675E-15
rhumerus 23.26333773656203 17.847163582215977 -48.50302148949851
rradius 74.90347884310347
rwrist 25.811353854547164
rhand -34.819127120107325 -58.10363202092011
rfingers 7.12502
rthumb -7.961904052803339 -88.01418548376634
lclavicle -1.11460288191066E-15 -8.415923743511292E-16
lhumerus 22.434644929379147 -14.54422715903166 45.765781971794304
lradius 71.33960871132221
lwrist -21.38669825807387
lhand -45.2723107314097 -69.02532060400665
lfingers 7.125020000000012
lthumb -18.046469195674966 -39.77720925805171
rfemur -24.51710575077076 -0.7844194262164237 18.602952262866523
rtibia 44.91452317991522
rfoot -33.024069348772755 -17.87479994306347
rtoes -23.04258775350412
lfemur -26.581971729269938 1.8265729468048972 -15.420705882273277
ltibia 44.949822516414876
lfoot -32.26788382999797 3.3538688793824694
ltoes -21.493931336941934
102
root 0 0 0 1.8452950058953368 -3.895122938646592 2.1776485615131502
lowerback 11.985890539028853 1.1655668494192017 -0.09711745458580501
upperback -4.457532765524335 1.465223309269013 -0.8561828567895785
thorax -11.56663480485679 0.6785678172803602 -1.1357253794286244
lowerneck -6.239012934610095 1.752427759330973 4.833191479136716
upperneck 18.17747315371596 3.2857131144772564 -8.488545050647465
head 6.697960915254563 1.2225399840622804 -3.293199291692585
rclavicle -2.149333660725019E-15 -1.1016707862824132E-15
rhumerus 23.263976394184574 17.848216534906285 -48.50382080802224
rradius 74.9040139349776
rwrist 25.810489316691672
rhand -34.81907208440012 -58.10336650991924
rfingers 7.12502
rthumb -7.961845200156047 -88.01381947908706
lclavicle -1.1143387060265846E-15 -8.405186418300291E-16
lhumerus 22.43432434865983 -14.5436904667187 45.76565419350054
lradius 71.33922821832671
lwrist -21.38694740218012
lhand -45.272323231276026 -69.02579310118571
lfingers 7.125020000000012
lthumb -18.046478528828604 -39.77754699779153
rfemur -24.524640638664316 -0.789330079326954 18.59583816527028
rtibia 44.9415928259937
rfoot -33.009653977651496 -17.873759512084256
rtoes -23.040385058673046
lfemur -26.566420649961316 1.82251820784948 -15.433747602670909
ltibia 44.907819398571164
lfoot -32.29192845079474 3.3682954601505344
ltoes -21.48901238472579
103
root 0 0 0 1.8456535184599567 -3.8937094342625334 2.1758980382432305
lowerback 11.986172556040708 1.1645878386812982 -0.09660194894924923
upperback -4.4575135338240095 1.4640642993833157 -0.8551057182621989
thorax -11.56688570987587 0.6780080889445268 -1.1346681889278967
lowerneck -6.239340006571033 1.7532083666474432 4.834005081576786
upperneck 18.175989809561177 3.2868675518179256 -8.489882107674115
head 6.697470185630292 1.2230030760073851 -3.2936469591647413
rclavicle -2.1596680930163937E-15 -1.0951501389866656E-15
rhumerus 23.256523893894993 17.836984538533613 -48.49625840824835
rradius 74.89707344004383
rwrist 25.81885571651956
rhand -34.81894537726042 -58.10359511466328
rfingers 7.12502
rthumb -7.962052121576276 -88.01509817206562
lclavicle -1.1176497058643371E-15 -8.346928562026959E-16
lhumerus 22.43639790264165 -14.543449636328237 45.76346749268667
lradius 71.34046533581369
lwrist -21.389359864180186
lhand -45.272629300444194 -69.02815386905519
lfingers 7.125020000000012
lthumb -18.047193536212195 -39.780993773346395
rfemur -24.525982234263193 -0.7806158857423071 18.61220544112173
rtibia 44.88595808529645
rfoot -33.04897044101163 -17.876857161621523
rtoes -23.030514435863854
lfemur -26.58271349128775 1.830998378977558 -15.402876863299277
ltibia 45.0234896595757
lfoot -32.20701605295529 3.3156238584634137
ltoes -21.504044763578555
104
root 0 0 0 1.8450895100562419 -3.8948911445775387 2.175376868502365
lowerback 11.986116495939047 1.1654069614586047 -0.09539602308506134
upperback -4.457581258125372 1.4652981928751863 -0.8554442970324582
thorax -11.56685445949221 0.6785500025579915 -1.1359704908624086
lowerneck -6.238848110257689 1.752662483276911 4.833630290954997
upperneck 18.177124498634342 3.2860957332438137 -8.489209437483847
head 6.697807126312119 1.2226815595790943 -3.293422975838199
rclavicle -2.1521819230525713E-15 -1.1021274765464763E-15
rhumerus 23.26164740543644 17.844627861986524 -48.50111753565588
rradius 74.90206730228857
rwrist 25.813399662417897
rhand -34.819225524281705 -58.104198644661835
rfingers 7.12502
rthumb -7.961976990805914 -88.01484588786418
lclavicle -1.1172642649045837E-15 -8.41437826373023E-16
lhumerus 22.434985009264814 -14.544578945711269 45.765766653309136
lradius 71.33999553373717
lwrist -21.386621359487627
lhand -45.272457887988026 -69.02570779577576
lfingers 7.125020000000012
lthumb -18.04661040365688 -39.7775017900548
rfemur -24.513104626730943 -0.7815089519500948 18.608043086313224
rtibia 44.89836193396005
rfoot -33.03478876673675 -17.875332835046713
rtoes -23.04213899732983
lfemur -26.594674009556602 1.831075489503538 -15.406937203400469
ltibia 45.003231980787774
lfoot -32.23241565156542 3.3312738766213448
ltoes -21.498007457257664
105
root 0 0 0 1.8452243455333934 -3.896064363306304 2.1756225623531344
lowerback 11.986220002509109 1.166030487862557 -0.09509213689591567
upperback -4.457466323203217 1.4661326523794607 -0.8558640635268194
thorax -11.566802088623223 0.6789487338339415 -1.1366827697537172
lowerneck -6.239220742491397 1.7523795411324123 4.8333870346285615
upperneck 18.177353038797207 3.285622227187022 -8.488706701971617
head 6.69795386856506 1.2224932783332911 -3.293269494158265
rclavicle -2.1510586207854137E-15 -1.102416985953377E-15
rhumerus 23.264071880357903 17.84794599018109 -48.503227260620534
rradius 74.90409813122656
rwrist 25.811072392302734
rhand -34.81923841398851 -58.10402281630134
rfingers 7.12502
rthumb -7.962015606702687 -88.01460451023479
lclavicle -1.1156865336141323E-15 -8.418295597198092E-16
lhumerus 22.434689144581476 -14.544028311126645 45.76561525732583
lradius 71.33958931466924
lwrist -21.386911024129518
lhand -45.27238571408752 -69.02583246403881
lfingers 7.125020000000012
lthumb -18.046545291545165 -39.777733762809646
rfemur -24.51408033998345 -0.7839912895709578 18.60454726092143
rtibia 44.91374692093187
rfoot -33.02634834353094 -17.875058267222407
rtoes -23.04102559386105
lfemur -26.594489380219777 1.8294856837816833 -15.41433741719155
ltibia 44.97299732080408
lfoot -32.25875534916556 3.3485811670721457
ltoes -21.49322448435577
106
root 0 0 0 1.8453577716321332 -3.8961157628635146 2.1770101232558248
lowerback 11.98621512323464 1.1659829922783578 -0.09621027909254065
upperback -4.457439888979124 1.465892534291147 -0.8562304594019611
thorax -11.566745617019617 0.6788702141438048 -1.136380263465378
lowerneck -6.239320287619705 1.752282659792647 4.833147215274007
upperneck 18.177678608312167 3.285491516322682 -8.488446754828969
head 6.698083238710852 1.2224395625707576 -3.293179853133956
rclavicle -2.150361169742072E-15 -1.1018039742465727E-15
rhumerus 23.265223753403774 17.849719816255096 -48.50448984342261
rradius 74.90505014349964
rwrist 25.809693293892092
rhand -34.81918780532589 -58.10368742343119
rfingers 7.12502
rthumb -7.961962225238814 -88.01415201680345
lclavicle -1.115195568735861E-15 -8.406577423102337E-16
lhumerus 22.43434900369924 -14.543520752467627 45.76552649132406
lradius 71.33919810847401
lwrist -21.387113651209397
lhand -45.27238296615678 -69.02620137539341
lfingers 7.125020000000012
lthumb -18.046539079693016 -39.777964398984324
rfemur -24.521590923537833 -0.7885105867486062 18.597841265417212
rtibia 44.93779551010861
rfoot -33.014035813773205 -17.874421652891122
rtoes -23.03998814799951
lfemur -26.57841652157944 1.8244763478229347 -15.428828063449798
ltibia 44.921513646892286
lfoot -32.287860316258346 3.367154645986372
ltoes -21.487104689156773
107
root 0 0 0 1.845864451428894 -3.8947231598391716 2.1754006800881234
lowerback 11.986430214677846 1.1649886306172528 -0.09584815500896537
upperback -4.457410989526973 1.464694070126654 -0.8551758064236131
thorax -11.566933729494874 0.6782958894981093 -1.1352536982083035
lowerneck -6.239712558980724 1.753027969785396 4.833883617347682
upperneck 18.176204559168124 3.28659557187689 -8.489686911213285
head 6.697608710982875 1.2228824608569169 -3.293592020612701
rclavicle -2.160327820293459E-15 -1.0951643026040447E-15
rhumerus 23.258102535128465 17.839008605824112 -48.49733035950678
rradius 74.89837076547512
rwrist 25.81762415211388
rhand -34.81903995463134 -58.10375456861766
rfingers 7.12502
rthumb -7.9621490863594815 -88.01524914097027
lclavicle -1.1180103275505156E-15 -8.346854064389213E-16
lhumerus 22.436338217834795 -14.543268876022909 45.76339729106236
lradius 71.34037030278544
lwrist -21.389474372744523
lhand -45.27264889976341 -69.02838754337174
lfingers 7.125020000000012
lthumb -18.047213433503565 -39.78122689407259
rfemur -24.522793084946752 -0.7792063569191017 18.61468245506998
rtibia 44.87777211546492
rfoot -33.055639875920306 -17.877795250963715
rtoes -23.032096303580317
lfemur -26.59183004914104 1.8313038444780418 -15.400304222023733
ltibia 45.02294272343647
lfoot -32.20904703694065 3.319458427668904
ltoes -21.50134097880448
